<?xml version="1.0" encoding="utf-8"?>
<!-- Generator: Adobe Illustrator 26.3.1, SVG Export Plug-In . SVG Version: 6.00 Build 0)  -->
<svg version="1.1" id="Layer_1" xmlns="http://www.w3.org/2000/svg" xmlns:xlink="http://www.w3.org/1999/xlink" x="0px" y="0px"
	 viewBox="0 0 250 80.7" style="enable-background:new 0 0 250 80.7;" xml:space="preserve">
<style type="text/css">
	.st0{fill:#FFFFFF;}
</style>
<g>
	<g>
		<path class="st0" d="M46.9,46H0.3v-8L31.2,8.9H0V0h46.8v9.4L16.2,38.1h30.7V46z"/>
		<path class="st0" d="M98.3,45.9H86.8l-3.9-10.4H64l-4.1,10.4H48.5L67.3,0h11.2L98.3,45.9z M79.4,27.4l-6.2-16.1l-6,16.1H79.4z"/>
		<path class="st0" d="M147.3,45.9h-14.6l-22.2-33.9v33.9h-11V0h14.8l21.8,34.4V0h11.2V45.9z"/>
		<path class="st0" d="M196.3,45.9h-22.4c-3.5,0-6.8-0.8-10-2.4c-3.5-1.7-6.1-4.4-7.9-8.1c-1.8-3.7-2.7-7.8-2.7-12.3
			c0-4.4,0.9-8.4,2.6-12c1.9-3.9,4.6-6.7,8-8.5c1.9-1,3.7-1.6,5.4-2C171,0.2,173,0,175.3,0H196v8.2h-19.2c-1.7,0-3.1,0.2-4.3,0.7
			c-1.2,0.5-2.3,1.3-3.4,2.4c-1.1,1.2-1.9,2.3-2.4,3.4c-0.4,1.1-0.7,2.5-0.7,4.1h30.2V27h-30.2c0,1.5,0.2,2.8,0.6,3.9
			c0.4,1.1,1.1,2.3,2.1,3.4c1,1.2,2.1,2.1,3.2,2.7c1.1,0.6,2.5,0.9,4,0.9h20.2V45.9z"/>
		<path class="st0" d="M250,45.9h-13L225.1,28h-12.4v17.9h-10.9V0h33.6c3.8,0,7,1.5,9.4,4.4s3.7,6.4,3.7,10.4c0,3.2-1.1,5.9-3.2,8.1
			c-2.1,2.2-4.9,3.6-8.1,4.2L250,45.9z M235.4,14.4c0-2.1-0.8-3.8-2.4-4.9c-1.6-1.2-3.8-1.7-6.5-1.7h-13.8v12.8h14.1
			c2.1,0,3.9-0.5,5.5-1.4C234.4,18,235.4,16.4,235.4,14.4z"/>
	</g>
	<g>
		<path class="st0" d="M127.9,69h-8.3l-2.7,5.2h-4.1l12-22.2h3.4l4.3,22.2h-3.8L127.9,69z M121.2,65.8h6.2l-1.5-9.2L121.2,65.8z"/>
		<path class="st0" d="M135.7,65.9c0.2-1.7,0.6-3.1,1.3-4.5c0.7-1.3,1.6-2.4,2.6-3.1c1.1-0.7,2.3-1.1,3.6-1c1.8,0,3.2,0.7,4.1,2
			l0.6-1.7l3.3,0l-2.7,16.1c-0.3,2.2-1.2,3.9-2.7,5.2c-1.5,1.3-3.4,1.9-5.5,1.8c-1.2,0-2.3-0.3-3.3-0.8c-1-0.5-1.9-1.2-2.5-2
			l1.9-2.2c1,1.3,2.2,2,3.8,2.1c1.2,0,2.2-0.3,3-1c0.8-0.7,1.4-1.7,1.7-2.9l0.3-1.2c-1.3,1.2-2.7,1.8-4.3,1.8
			c-1.5,0-2.8-0.6-3.7-1.8s-1.4-2.7-1.5-4.6C135.6,67.4,135.6,66.7,135.7,65.9z M139.3,66.2c-0.1,0.5-0.1,1.1-0.1,1.7
			c0,1.1,0.3,1.9,0.7,2.6c0.5,0.6,1.1,1,2,1c1.4,0.1,2.6-0.6,3.6-1.9l1.3-7.3c-0.5-1.2-1.5-1.8-2.8-1.9c-1.2,0-2.3,0.4-3.1,1.4
			c-0.8,1-1.4,2.3-1.6,4.1L139.3,66.2z"/>
		<path class="st0" d="M177.5,74.1h-3.8l1.7-9.9h-9.6l-1.7,9.9h-3.8l3.9-22.2h3.8l-1.6,9.3h9.6l1.6-9.3h3.8L177.5,74.1z"/>
		<path class="st0" d="M189.1,74.4c-1.4,0-2.7-0.4-3.7-1.1c-1.1-0.7-1.8-1.6-2.3-2.8c-0.5-1.2-0.7-2.5-0.6-4l0-0.6
			c0.2-1.7,0.7-3.2,1.5-4.5c0.8-1.3,1.8-2.4,3-3c1.2-0.7,2.5-1,3.9-1c2.1,0,3.6,0.8,4.7,2.3c1,1.5,1.4,3.5,1.2,5.9l-0.2,1.6h-10.4
			c-0.1,1.3,0.2,2.4,0.8,3.2s1.5,1.2,2.6,1.2c1.6,0.1,3-0.6,4.3-2l1.8,1.9c-0.7,1-1.6,1.8-2.7,2.3C191.7,74.2,190.5,74.5,189.1,74.4
			z M190.7,60.3c-1.9-0.1-3.4,1.3-4.3,4.1l6.9,0l0.1-0.3c0.1-0.5,0.1-0.9,0-1.4c-0.1-0.7-0.4-1.3-0.9-1.7
			C192,60.5,191.4,60.3,190.7,60.3z"/>
		<path class="st0" d="M198.9,65.9c0.2-1.7,0.7-3.2,1.4-4.6c0.7-1.4,1.6-2.4,2.6-3c1-0.7,2.2-1,3.5-1c1.7,0,3,0.7,3.9,1.9l1.6-8.5
			h3.6l-4.1,23.5h-3.2l0.2-1.7c-1.3,1.4-2.8,2.1-4.5,2c-1.5,0-2.8-0.6-3.7-1.8c-0.9-1.2-1.4-2.7-1.5-4.7c0-0.6,0-1.2,0-1.8
			L198.9,65.9z M202.4,67.3c-0.1,1.3,0.1,2.3,0.6,3c0.5,0.7,1.2,1.1,2.1,1.1c1.4,0,2.6-0.6,3.6-2l1.2-7.1c-0.5-1.3-1.4-1.9-2.8-2
			c-1.4,0-2.5,0.6-3.3,1.8C203,63.4,202.5,65.1,202.4,67.3z"/>
		<path class="st0" d="M216.2,65.9c0.2-1.7,0.6-3.1,1.3-4.5c0.7-1.3,1.6-2.4,2.6-3.1c1.1-0.7,2.3-1.1,3.6-1c1.8,0,3.2,0.7,4.1,2
			l0.6-1.7l3.3,0l-2.7,16.1c-0.3,2.2-1.2,3.9-2.7,5.2c-1.5,1.3-3.4,1.9-5.5,1.8c-1.2,0-2.3-0.3-3.3-0.8c-1-0.5-1.9-1.2-2.5-2
			l1.9-2.2c1,1.3,2.2,2,3.8,2.1c1.2,0,2.2-0.3,3-1c0.8-0.7,1.4-1.7,1.7-2.9l0.3-1.2c-1.3,1.2-2.7,1.8-4.3,1.8
			c-1.5,0-2.8-0.6-3.7-1.8s-1.4-2.7-1.5-4.6C216.1,67.4,216.1,66.7,216.2,65.9z M219.8,66.2c-0.1,0.5-0.1,1.1-0.1,1.7
			c0,1.1,0.3,1.9,0.7,2.6c0.5,0.6,1.1,1,2,1c1.4,0.1,2.6-0.6,3.6-1.9l1.3-7.3c-0.5-1.2-1.5-1.8-2.8-1.9c-1.2,0-2.3,0.4-3.1,1.4
			c-0.8,1-1.4,2.3-1.6,4.1L219.8,66.2z"/>
		<path class="st0" d="M240.2,74.4c-1.4,0-2.7-0.4-3.7-1.1c-1.1-0.7-1.8-1.6-2.3-2.8c-0.5-1.2-0.7-2.5-0.6-4l0-0.6
			c0.2-1.7,0.7-3.2,1.5-4.5c0.8-1.3,1.8-2.4,3-3c1.2-0.7,2.5-1,3.9-1c2.1,0,3.6,0.8,4.7,2.3c1,1.5,1.4,3.5,1.2,5.9l-0.2,1.6h-10.4
			c-0.1,1.3,0.2,2.4,0.8,3.2s1.5,1.2,2.6,1.2c1.6,0.1,3-0.6,4.3-2l1.8,1.9c-0.7,1-1.6,1.8-2.7,2.3C242.8,74.2,241.6,74.5,240.2,74.4
			z M241.8,60.3c-1.9-0.1-3.4,1.3-4.3,4.1l6.9,0l0.1-0.3c0.1-0.5,0.1-0.9,0-1.4c-0.1-0.7-0.4-1.3-0.9-1.7
			C243.1,60.5,242.5,60.3,241.8,60.3z"/>
	</g>
</g>
</svg>
